<svg xmlns="http://www.w3.org/2000/svg" version="1.1" xmlns:xlink="http://www.w3.org/1999/xlink" viewBox="0 0 200 200"><rect width="200" height="200" fill="url('#gradient')"></rect><defs><linearGradient id="gradient" gradientTransform="rotate(49 0.5 0.5)"><stop offset="0%" stop-color="#c99091"></stop><stop offset="100%" stop-color="#6d7563"></stop></linearGradient></defs><g><g fill="#c4345e" transform="matrix(4.0491155046826215,0,0,4.0491155046826215,43.11207583297305,130.7910625337686)" stroke="#ce646a" stroke-width="0.35"><path d="M9.98 0L9.15-2.66L4.45-2.66L3.63 0L-0.03 0L5.19-14.22L8.41-14.22L13.66 0L9.98 0ZM6.80-10.23L5.27-5.30L8.33-5.30L6.80-10.23ZM18.57 0L15.27 0L15.27-8.28L13.74-8.28L13.74-10.57L15.27-10.57L15.27-11.41Q15.27-13.21 16.34-14.21Q17.40-15.21 19.33-15.21L19.33-15.21Q20.03-15.21 20.87-15L20.87-15L20.88-12.58Q20.58-12.67 20.07-12.67L20.07-12.67Q18.57-12.67 18.57-11.38L18.57-11.38L18.57-10.57L20.63-10.57L20.63-8.28L18.57-8.28L18.57 0ZM25.82 0L22.52 0L22.52-8.28L20.99-8.28L20.99-10.57L22.52-10.57L22.52-11.41Q22.52-13.21 23.58-14.21Q24.65-15.21 26.57-15.21L26.57-15.21Q27.28-15.21 28.12-15L28.12-15L28.13-12.58Q27.82-12.67 27.31-12.67L27.31-12.67Q25.82-12.67 25.82-11.38L25.82-11.38L25.82-10.57L27.88-10.57L27.88-8.28L25.82-8.28L25.82 0Z"></path></g></g></svg>